<svg width="26" height="20" viewBox="0 0 26 20" fill="none" xmlns="http://www.w3.org/2000/svg">
<path d="M11.6793 5.06003V19.1606H0L11.6793 5.06003ZM11.6793 0C11.6793 1.54877 11.0641 3.03411 9.96891 4.12926C8.87376 5.2244 7.38842 5.83965 5.83965 5.83965C4.29088 5.83965 2.80554 5.2244 1.71039 4.12926C0.615248 3.03411 0 1.54877 0 0L11.6793 0ZM13.6034 19.1619C13.6034 17.6131 14.2186 16.1278 15.3138 15.0326C16.4089 13.9375 17.8942 13.3222 19.443 13.3222C20.9918 13.3222 22.4771 13.9375 23.5723 15.0326C24.6674 16.1278 25.2827 17.6131 25.2827 19.1619H13.6034ZM13.6034 14.1019V0H25.2852L13.6034 14.1006V14.1019Z" fill="white"/>
</svg>
